<svg width="12" height="12" viewBox="0 0 12 12" fill="none" xmlns="http://www.w3.org/2000/svg">
<g clip-path="url(#clip0_1_1255)">
<path d="M11.8549 11.1466L8.87036 8.16208C9.68367 7.16737 10.0835 5.89812 9.98728 4.61686C9.89101 3.33559 9.30596 2.14034 8.35315 1.27833C7.40034 0.416329 6.15265 -0.0464798 4.86818 -0.0143639C3.5837 0.017752 2.36071 0.542336 1.45216 1.45088C0.543618 2.35943 0.0190338 3.58242 -0.0130821 4.8669C-0.0451981 6.15137 0.417611 7.39905 1.27962 8.35187C2.14162 9.30468 3.33687 9.88973 4.61814 9.986C5.8994 10.0823 7.16865 9.68239 8.16336 8.86908L11.1479 11.8536C11.2422 11.9447 11.3685 11.9951 11.4996 11.9939C11.6307 11.9928 11.7561 11.9402 11.8488 11.8475C11.9415 11.7548 11.9941 11.6294 11.9952 11.4983C11.9963 11.3672 11.9459 11.2409 11.8549 11.1466ZM5.00136 9.00008C4.21023 9.00008 3.43687 8.76548 2.77907 8.32595C2.12128 7.88643 1.60859 7.26171 1.30584 6.53081C1.00309 5.7999 0.923874 4.99564 1.07821 4.21971C1.23256 3.44379 1.61352 2.73106 2.17293 2.17165C2.73234 1.61224 3.44507 1.23127 4.22099 1.07693C4.99692 0.922592 5.80119 1.00181 6.53209 1.30456C7.26299 1.60731 7.88771 2.12 8.32724 2.77779C8.76676 3.43559 9.00136 4.20895 9.00136 5.00007C9.00017 6.06058 8.57836 7.0773 7.82847 7.82719C7.07858 8.57707 6.06186 8.99888 5.00136 9.00008Z" fill="#717274"/>
</g>
<defs>
<clipPath id="clip0_1_1255">
<rect width="12" height="12" fill="white"/>
</clipPath>
</defs>
</svg>
